<?xml version="1.0" standalone="no"?>
<!DOCTYPE svg PUBLIC "-//W3C//DTD SVG 20010904//EN"
 "http://www.w3.org/TR/2001/REC-SVG-20010904/DTD/svg10.dtd">
<svg version="1.0" xmlns="http://www.w3.org/2000/svg"
 width="225.000000pt" height="225.000000pt" viewBox="0 0 225.000000 225.000000"
 preserveAspectRatio="xMidYMid meet">
<metadata>
Created by potrace 1.16, written by Peter Selinger 2001-2019
</metadata>
<g transform="translate(0.000000,225.000000) scale(0.100000,-0.100000)"
fill="#000000" stroke="none">
<path d="M1035 2190 c-452 -48 -819 -398 -900 -857 -86 -482 142 -965 552
-1172 139 -70 273 -102 428 -103 718 -2 1205 745 949 1457 -125 348 -430 611
-769 663 -108 17 -184 20 -260 12z m242 -101 c35 -6 63 -14 63 -18 0 -4 16
-24 35 -44 34 -36 47 -66 23 -51 -8 5 -8 1 1 -10 9 -11 24 -16 38 -13 15 3 29
-3 40 -17 17 -20 17 -20 0 -5 -19 16 -72 14 -61 -2 3 -5 -2 -12 -10 -15 -9 -3
-16 -13 -16 -21 0 -10 -6 -13 -16 -9 -14 5 -15 4 -4 -9 9 -11 9 -15 1 -15 -7
0 -9 -4 -6 -10 3 -5 1 -10 -5 -10 -6 0 -8 -4 -5 -10 9 -14 -8 -13 -23 2 -17
17 -15 28 4 21 11 -4 15 -2 12 7 -6 19 -90 38 -115 27 -11 -5 -30 -26 -42 -47
-11 -20 -28 -43 -36 -50 -8 -7 -15 -26 -15 -42 0 -27 3 -30 25 -24 18 5 27 1
35 -15 14 -26 6 -36 -15 -19 -13 11 -15 8 -15 -19 0 -18 -5 -31 -13 -31 -6 0
-24 -13 -40 -29 -15 -16 -40 -32 -56 -36 -29 -6 -29 -7 -11 -25 15 -15 17 -25
11 -42 -7 -20 -15 -23 -50 -20 -37 3 -41 1 -41 -20 0 -13 -4 -29 -9 -37 -12
-18 -2 -51 15 -51 24 0 15 -35 -16 -62 -16 -14 -30 -35 -30 -46 0 -12 -14 -28
-34 -40 -49 -29 -90 -95 -92 -146 0 -22 -4 -58 -9 -78 -7 -33 -4 -42 24 -76
17 -22 31 -44 31 -50 0 -5 15 -23 34 -40 32 -28 38 -29 102 -26 38 2 86 6 107
10 28 5 43 2 57 -11 11 -10 26 -14 38 -11 30 10 43 -14 31 -58 -9 -34 -8 -40
20 -71 36 -42 58 -112 42 -135 -20 -27 -32 -64 -27 -80 13 -44 32 -90 54 -138
21 -45 28 -52 46 -46 11 4 36 11 55 15 38 8 101 55 117 87 5 11 20 29 32 39
12 10 25 29 27 43 3 14 25 43 50 65 47 42 54 68 40 154 -4 26 2 47 27 90 17
31 39 65 49 76 27 30 56 103 65 159 l7 49 -47 -32 c-40 -28 -47 -30 -52 -16
-5 11 8 31 40 62 25 25 46 52 46 60 0 7 6 16 14 19 21 8 41 91 30 125 -8 26
-40 29 -59 6 -18 -21 -18 -21 -26 -2 -4 11 -8 16 -8 12 -1 -13 -51 45 -51 59
0 8 7 14 15 14 8 0 15 -5 15 -10 0 -6 12 -16 26 -22 21 -10 27 -9 35 3 7 11
11 11 17 2 6 -10 17 -8 46 7 39 19 76 14 76 -11 0 -6 6 -9 13 -6 10 4 27 -25
56 -90 l42 -94 -11 -92 c-19 -162 -49 -264 -111 -387 -48 -97 -93 -158 -176
-244 -341 -348 -881 -357 -1230 -21 -87 84 -102 115 -57 115 24 0 25 2 23 54
-2 37 3 62 14 80 36 54 27 69 -117 205 -30 28 -46 52 -46 67 0 31 -26 94 -44
108 -8 6 -22 37 -31 69 -9 31 -20 57 -25 57 -17 0 -30 66 -24 123 5 43 10 57
20 53 8 -3 14 1 14 10 0 8 -4 13 -9 10 -19 -12 28 144 65 216 34 66 121 138
166 138 16 0 18 -3 9 -14 -9 -11 -6 -12 15 -8 17 3 22 7 13 12 -10 7 -9 14 5
35 18 27 18 27 -6 21 l-23 -6 22 11 c18 9 29 8 55 -4 32 -16 34 -16 51 4 9 12
17 31 17 44 0 12 7 28 15 35 17 14 21 35 5 25 -18 -11 -10 11 10 30 11 10 20
24 20 32 0 10 -6 10 -27 -4 -16 -10 -34 -23 -41 -30 -7 -7 -19 -13 -26 -13 -8
0 -19 -7 -26 -15 -7 -8 -17 -15 -22 -15 -18 0 58 83 106 116 46 31 75 37 60
12 -4 -7 -2 -8 5 -4 6 4 9 12 5 18 -3 5 2 9 12 8 39 -4 60 0 46 9 -10 6 -4 13
21 25 19 9 42 16 51 16 9 0 16 5 16 10 0 6 8 10 18 10 10 0 22 3 26 8 24 24
273 38 373 21z m258 -552 c19 -9 35 -21 35 -26 0 -13 -36 -24 -58 -17 -12 4
-34 -5 -61 -24 -34 -25 -40 -34 -32 -49 12 -21 48 -34 57 -20 3 5 10 7 15 3 5
-3 16 -1 24 6 20 16 39 -23 31 -65 -7 -33 -8 -34 -69 -39 -34 -3 -75 -4 -91
-3 -24 2 -31 -3 -35 -21 l-6 -22 -40 20 c-21 11 -47 20 -57 20 -9 0 -20 6 -25
13 -7 12 -8 16 -11 48 -2 14 -11 16 -49 12 -27 -3 -67 -11 -91 -18 -41 -14
-77 -11 -67 5 2 4 18 10 35 13 21 5 31 14 36 32 3 14 15 30 25 36 11 5 19 16
19 24 0 10 10 15 28 15 15 0 32 4 38 10 6 6 26 -6 57 -35 25 -25 44 -38 41
-30 -4 9 -1 15 7 15 8 0 0 9 -18 20 -35 21 -58 55 -44 64 5 3 15 -1 22 -10 7
-8 25 -22 41 -30 15 -8 28 -20 28 -27 1 -22 47 -70 55 -57 4 6 2 17 -4 23 -14
14 -15 30 -1 22 6 -3 10 -1 10 5 0 7 6 10 13 7 17 -6 38 18 26 30 -6 6 -7 26
-4 47 7 36 8 36 31 21 29 -19 38 -19 31 -1 -3 7 0 19 6 25 9 10 13 8 15 -7 2
-10 18 -26 37 -35z"/>
<path d="M930 2059 c0 -5 -7 -9 -15 -9 -8 0 -15 -4 -15 -8 0 -4 16 -6 36 -4
26 3 35 1 30 -7 -4 -6 -11 -9 -16 -6 -12 7 -40 -5 -40 -19 -1 -15 -46 -66 -60
-66 -6 0 -9 -4 -6 -9 3 -5 -5 -12 -18 -15 -25 -6 -66 -62 -66 -90 0 -22 6 -20
45 10 19 14 40 27 47 28 7 2 31 6 53 10 49 9 86 26 80 37 -3 4 3 10 12 13 10
3 27 19 38 36 11 16 24 30 29 30 5 0 2 8 -5 17 -12 14 -12 16 0 8 10 -5 12 -4
7 4 -4 7 -15 11 -24 10 -10 -1 -26 -1 -37 0 -16 1 -17 3 -5 11 8 5 12 11 9 14
-9 9 -79 13 -79 5z"/>
</g>
</svg>
