<?xml version="1.0" standalone="no"?>
<!DOCTYPE svg PUBLIC "-//W3C//DTD SVG 20010904//EN"
 "http://www.w3.org/TR/2001/REC-SVG-20010904/DTD/svg10.dtd">
<svg version="1.0" xmlns="http://www.w3.org/2000/svg"
 width="225.000000pt" height="225.000000pt" viewBox="0 0 225.000000 225.000000"
 preserveAspectRatio="xMidYMid meet">
<metadata>
Created by potrace 1.16, written by Peter Selinger 2001-2019
</metadata>
<g transform="translate(0.000000,225.000000) scale(0.100000,-0.100000)"
fill="#000000" stroke="none">
<path d="M1050 1878 c-38 -20 -81 -65 -92 -98 -2 -6 -100 -19 -218 -31 -167
-16 -219 -25 -232 -38 -10 -9 -108 -224 -218 -479 -220 -508 -216 -497 -180
-615 39 -125 135 -235 251 -286 273 -121 591 54 641 351 12 76 27 34 -200 558
-148 341 -157 365 -138 371 12 3 86 12 164 19 l144 12 31 -30 c45 -42 69 -52
124 -52 65 0 152 55 153 97 0 7 10 15 23 17 33 7 288 28 292 24 2 -1 -78 -194
-177 -427 l-180 -425 10 -68 c43 -286 332 -462 606 -368 135 46 243 159 286
299 37 117 39 106 -180 624 -110 259 -209 480 -219 491 -19 19 -22 19 -238 -2
l-218 -21 -24 31 c-28 35 -92 67 -136 68 -17 0 -51 -10 -75 -22z m804 -623
l145 -340 -291 -3 c-160 -1 -293 0 -296 2 -2 3 54 144 126 313 72 169 139 326
148 348 9 22 18 36 20 30 2 -5 69 -163 148 -350z m-1155 -98 c78 -181 141
-332 139 -335 -2 -4 -134 -5 -294 -2 l-291 5 146 337 c80 186 149 334 152 330
4 -4 70 -155 148 -335z m1325 -399 c-28 -92 -105 -182 -189 -220 -72 -33 -199
-32 -270 2 -63 31 -134 101 -163 162 -39 84 -62 78 304 78 l325 0 -7 -22z
m-1154 -86 c0 -34 -51 -121 -96 -162 -72 -66 -123 -85 -229 -85 -78 0 -97 4
-140 27 -86 45 -153 125 -180 216 l-6 22 325 0 c308 0 326 -1 326 -18z"/>
</g>
</svg>
